<?xml version="1.0" encoding="UTF-8" standalone="no"?>
<svg
   xmlns:dc="http://purl.org/dc/elements/1.1/"
   xmlns:cc="http://creativecommons.org/ns#"
   xmlns:rdf="http://www.w3.org/1999/02/22-rdf-syntax-ns#"
   xmlns:svg="http://www.w3.org/2000/svg"
   xmlns="http://www.w3.org/2000/svg"
   viewBox="0 0 385.33334 172"
   height="172"
   width="385.33334"
   xml:space="preserve"
   id="svg2"
   version="1.1"><metadata
     id="metadata8"><rdf:RDF><cc:Work
         rdf:about=""><dc:format>image/svg+xml</dc:format><dc:type
           rdf:resource="http://purl.org/dc/dcmitype/StillImage" /></cc:Work></rdf:RDF></metadata><defs
     id="defs6" /><g
     transform="matrix(1.3333333,0,0,-1.3333333,0,172)"
     id="g10"><g
       transform="scale(0.1)"
       id="g12"><path
         id="path14"
         style="fill:#00b8de;fill-opacity:1;fill-rule:evenodd;stroke:none"
         d="m 311.988,0.511719 c 54.34,50.660181 96.024,99.797281 125,147.500281 28.672,47.648 47.852,94.136 57.5,139.488 9.653,45.66 12.5,90.309 8.524,133.98 -3.672,43.36 -11.024,86.329 -22.032,129.032 -10.98,42.297 -22.5,84.328 -34.5,125.968 -11.992,41.68 -21.64,83.168 -28.98,124.5 -7.34,41.68 -9.02,83.36 -5,125 3.672,42.032 15.98,84.33 36.988,127.03 20.672,42.65 53.012,86.13 96.992,130.47 -60.968,-52.31 -107.652,-102.31 -140,-150 -32.339,-47.66 -53.82,-93.992 -64.492,-138.992 -11.008,-45 -14.648,-89.328 -11.008,-133.008 3.36,-43.98 10.192,-88.32 20.5,-133 10,-44.339 20,-90 30,-137 10,-46.992 16.02,-95.968 18.008,-146.992 2.352,-51.008 -2.847,-105 -15.508,-161.988 -13,-56.68 -36.992,-117.3398 -71.992,-181.988281" /><path
         id="path16"
         style="fill:#002e6e;fill-opacity:1;fill-rule:evenodd;stroke:none"
         d="m 286.988,644.488 c 56.024,18.321 106.024,38.992 150,61.992 43.992,23.008 79.34,46.532 106.024,70.508 21.328,-10 34.797,-23.508 40.468,-40.508 6.008,-21.992 -1.64,-46.171 -22.968,-72.5 -21.371,-26.32 -53.012,-52.339 -95,-78 -42.352,-25.671 -92.192,-48.992 -149.532,-70 -11.64,42.34 -21.332,85.192 -28.992,128.508 M 661.48,732.5 c -4.64,15 -16.48,26.84 -35.5,35.512 -18.992,8.976 -43.48,14.797 -73.48,17.5 15,15 25.66,29.328 31.988,42.968 6.332,14.02 7.852,27.032 4.492,39.02 -5.968,18.012 -21.832,31.641 -47.5,40.98 -25.968,9.02 -59.332,13.668 -100,14.02 18.68,-5 33.829,-11.68 45.508,-20 11.992,-8.672 19.852,-19.02 23.524,-31.02 5.66,-20.308 -0.352,-42.339 -18.012,-65.968 C 474.84,781.48 448.012,757.5 411.988,733.48 375.98,709.488 333.16,687.148 283.48,666.48 c -7.66,48.68 -9.808,98.008 -6.492,148.008 3.672,50 15.352,100.821 35,152.5 19.653,51.682 50.16,104.342 91.492,158.012 41.36,53.67 96.36,108.67 165,165 -107.968,-68.67 -192.152,-137.5 -252.5,-206.52 -60.32,-68.99 -98.64,-140 -115,-212.968 -16.332,-73.012 -12.308,-149.692 12.032,-230 -9.692,-3.364 -19.532,-6.371 -29.532,-9.032 -32.66,-9.64 -64.339,-17.5 -94.9995,-23.468 C 57.5,601.988 28.0117,597.66 0,595 c 30.6602,-0.66 64.4883,1.48 101.48,6.48 36.68,5 75.508,12.661 116.532,23.008 12.968,-40 30.66,-81.328 52.968,-123.976 -4.652,-1.371 -9.5,-2.852 -14.5,-4.532 -32.652,-9.652 -64.492,-17.5 -95.5,-23.48 -30.671,-6.02 -60.16,-10.16 -88.48,-12.5 29.34,-0.66 61.48,1.328 96.48,5.98 34.692,4.329 71.18,11.168 109.5,20.5 22.692,-41.32 49.329,-83.82 80,-127.5 -12.308,46.02 -25,92.192 -37.968,138.52 3.976,0.98 7.968,2.148 11.988,3.48 50.66,15 97.148,32.34 139.488,52.032 C 513.98,572.34 550,592.5 580,613.48 c 30.309,21.36 52.66,42.18 66.988,62.5 14.34,20.348 19.184,39.18 14.492,56.52" /><path
         id="path18"
         style="fill:#002e6e;fill-opacity:1;fill-rule:nonzero;stroke:none"
         d="m 851.52,544.488 h -37.5 v 330 h 37.5 z m 247.23,0 V 696.52 c 0,20 -4.53,34.3 -13.59,42.968 -8.99,8.633 -20.43,12.973 -34.38,12.973 -8.36,0 -16.64,-1.371 -24.84,-4.063 -8.13,-2.617 -15.71,-6.519 -22.66,-11.718 -6.991,-5.121 -13.202,-11.41 -18.589,-18.91 -5.312,-7.5 -9.461,-16.09 -12.351,-25.782 v -147.5 h -35 v 230 h 27.5 l 3.91,-42.968 h 2.031 c 4.379,13.949 14.059,25.82 29.059,35.628 15,9.883 33.64,14.84 55.94,14.84 10.63,0 20.67,-1.398 30.16,-4.218 9.57,-2.809 17.85,-7.418 24.84,-13.75 6.95,-6.36 12.54,-14.68 16.72,-25 4.14,-10.309 6.25,-22.969 6.25,-37.969 V 544.488 Z" /><path
         id="path20"
         style="fill:#002e6e;fill-opacity:1;fill-rule:nonzero;stroke:none"
         d="m 1220.27,751.051 h -38.59 v 18.437 l 39.53,5 7.5,69.532 h 26.56 v -69.532 h 53.91 v -23.437 h -53.91 V 591.52 c 0,-10.739 1.57,-17.77 4.69,-21.09 3.2,-3.36 8.16,-5 14.84,-5 7.58,0 14.38,1.129 20.32,3.441 6.01,2.379 11.4,5.231 16.09,8.59 l 7.03,-26.41 c -5.62,-2.731 -13.04,-5.391 -22.19,-7.961 -9.17,-2.699 -19.29,-4.07 -30.31,-4.07 -10.62,0 -18.98,1.531 -25,4.531 -6.05,2.898 -10.58,6.879 -13.59,11.879 -2.93,5 -4.81,10.55 -5.63,16.718 -0.86,6.25 -1.25,12.34 -1.25,18.282 z" /><path
         id="path22"
         style="fill:#002e6e;fill-opacity:1;fill-rule:nonzero;stroke:none"
         d="m 1401.05,544.488 h -35 v 230 h 35 z m -42.5,314.063 c 0,6.648 2.39,12.66 7.19,17.969 4.77,5.32 10.71,7.968 17.81,7.968 6.65,0 12.66,-2.648 17.97,-7.968 5.32,-5.309 7.97,-11.321 7.97,-17.969 0,-7.102 -2.65,-13.039 -7.97,-17.813 -5.31,-4.797 -11.32,-7.187 -17.97,-7.187 -7.1,0 -13.04,2.39 -17.81,7.187 -4.8,4.774 -7.19,10.711 -7.19,17.813 z" /><path
         id="path24"
         style="fill:#002e6e;fill-opacity:1;fill-rule:nonzero;stroke:none"
         d="m 1865.78,571.988 c -15,-10 -32.11,-18.078 -51.25,-24.218 -19.18,-6.129 -40.58,-9.219 -64.22,-9.219 -27.3,0 -50.93,4.5 -70.93,13.437 -20,8.953 -36.65,21.102 -49.85,36.41 -13.12,15.391 -22.89,33.161 -29.22,53.282 -6.36,20.199 -9.53,41.64 -9.53,64.371 0,23.64 3.48,45.789 10.47,66.41 7.07,20.699 17.5,38.789 31.25,54.219 13.83,15.511 31.02,27.73 51.56,36.718 20.51,9.063 44.42,13.59 71.72,13.59 19.38,0 38.2,-1.949 56.56,-5.777 18.32,-3.871 34.69,-9.141 49.07,-15.781 l -10.63,-35.942 c -10.62,6.961 -24.37,12.813 -41.25,17.5 -16.8,4.692 -35.7,7.032 -56.72,7.032 -22.3,0 -41.17,-3.282 -56.56,-9.84 -15.31,-6.481 -27.73,-15.551 -37.19,-27.192 -9.49,-11.679 -16.33,-25.777 -20.47,-42.34 -4.18,-16.488 -6.25,-34.687 -6.25,-54.687 0,-45.621 10,-80.121 30,-103.441 20,-23.36 49.85,-35 89.54,-35 14.68,0 28.43,1.449 41.24,4.378 12.82,3.012 24.54,6.872 35.16,11.563 v 92.969 h 37.5 z" /><path
         id="path26"
         style="fill:#002e6e;fill-opacity:1;fill-rule:nonzero;stroke:none"
         d="m 2057.34,737.461 c -5.31,3.008 -10.62,5.391 -15.93,7.187 -5.32,1.872 -10.47,2.813 -15.47,2.813 -6.68,0 -13.05,-1.84 -19.06,-5.473 -6.06,-3.668 -11.57,-8.668 -16.57,-15 -5,-6.367 -9.45,-13.707 -13.28,-22.027 -3.75,-8.359 -6.64,-16.992 -8.59,-25.941 V 544.488 h -35 v 230 h 27.5 l 3.9,-50.468 h 2.04 c 2.26,7.582 5.35,14.89 9.21,21.878 3.83,7.071 8.52,13.282 14.07,18.59 5.5,5.313 11.75,9.532 18.75,12.66 6.95,3.204 14.92,4.84 23.9,4.84 6.33,0 13.01,-1.09 20,-3.277 7.07,-2.191 12.07,-4.961 15,-8.281 z" /><path
         id="path28"
         style="fill:#002e6e;fill-opacity:1;fill-rule:nonzero;stroke:none"
         d="m 2208.2,781.988 c 20.32,0 37.82,-3.437 52.5,-10.308 14.69,-6.801 26.76,-15.942 36.25,-27.5 9.46,-11.481 16.45,-24.649 20.94,-39.532 4.57,-14.808 6.88,-30.386 6.88,-46.718 0,-16.25 -2.31,-31.68 -6.88,-46.25 -4.49,-14.489 -11.41,-27.149 -20.78,-37.969 -9.3,-10.859 -21.17,-19.449 -35.63,-25.781 -14.49,-6.25 -31.56,-9.379 -51.25,-9.379 -20.31,0 -37.93,3.359 -52.81,10 -14.8,6.648 -27.03,15.551 -36.72,26.719 -9.68,11.14 -16.87,24.07 -21.56,38.75 -4.61,14.691 -6.87,30.16 -6.87,46.41 0,16.332 2.26,31.871 6.87,46.558 4.69,14.692 11.76,27.582 21.25,38.75 9.57,11.141 21.64,19.922 36.25,26.41 14.69,6.563 31.88,9.84 51.56,9.84 z m 1.57,-217.027 c 13.32,0 24.88,2.5 34.68,7.5 9.77,5 17.89,11.719 24.38,20.16 6.56,8.508 11.33,18.359 14.37,29.527 3.01,11.25 4.53,23.012 4.53,35.313 0,12.699 -1.64,24.879 -4.84,36.559 -3.12,11.64 -8.05,21.878 -14.69,30.628 -6.68,8.832 -15.11,15.942 -25.31,21.25 -10.12,5.391 -22.19,8.122 -36.25,8.122 -13.67,0 -25.31,-2.5 -35,-7.5 -9.61,-5 -17.58,-11.68 -23.91,-20 -6.36,-8.36 -11.05,-18.122 -14.06,-29.372 -3.05,-11.168 -4.53,-22.886 -4.53,-35.16 0,-12.726 1.56,-24.918 4.69,-36.558 3.2,-11.68 8.05,-21.989 14.53,-30.942 6.56,-8.976 14.88,-16.168 25,-21.558 10.19,-5.309 22.34,-7.969 36.41,-7.969 z" /><path
         id="path30"
         style="fill:#002e6e;fill-opacity:1;fill-rule:nonzero;stroke:none"
         d="M 2420.04,774.488 V 622.461 c 0,-10.313 1.25,-18.981 3.75,-25.941 2.5,-6.989 5.82,-12.571 10,-16.719 4.14,-4.18 9.14,-7.18 15,-9.063 5.82,-1.867 12.23,-2.808 19.22,-2.808 8.32,0 16.56,1.25 24.69,3.75 8.2,2.5 15.82,6.25 22.81,11.25 6.95,5 13.12,11.129 18.44,18.441 5.31,7.379 9.45,15.93 12.5,25.617 v 147.5 h 35 v -230 h -27.5 l -3.91,42.973 h -2.03 c -4.38,-13.981 -14.06,-25.621 -29.06,-35 -15,-9.262 -33.68,-13.91 -55.94,-13.91 -10.74,0 -20.86,1.371 -30.31,4.07 -9.5,2.578 -17.74,6.949 -24.69,13.117 -6.99,6.141 -12.58,14.262 -16.72,24.383 -4.18,10.188 -6.25,22.809 -6.25,37.809 v 156.558 z" /><path
         id="path32"
         style="fill:#002e6e;fill-opacity:1;fill-rule:nonzero;stroke:none"
         d="m 2783.44,781.988 c 16.95,0 31.76,-3.359 44.37,-10 12.7,-6.679 23.21,-15.539 31.57,-26.558 8.32,-10.942 14.57,-23.711 18.74,-38.282 4.15,-14.488 6.26,-29.687 6.26,-45.628 0,-16.68 -2.27,-32.461 -6.72,-47.34 -4.5,-14.801 -11.18,-27.77 -20,-38.91 -8.87,-11.168 -19.96,-20.071 -33.28,-26.719 -13.36,-6.641 -28.83,-10 -46.41,-10 -22.42,0 -40.78,4.808 -55.16,14.379 -14.29,9.691 -23.55,21.718 -27.81,36.09 V 414.488 h -35 v 360 h 27.5 l 3.91,-42.968 h 2.03 c 3.94,5.941 8.83,11.96 14.68,18.128 5.83,6.25 12.58,11.641 20.32,16.25 7.69,4.692 16.13,8.512 25.31,11.563 9.14,3.008 19.06,4.527 29.69,4.527 z m -9.06,-29.527 c -15.94,0 -30.86,-4.34 -44.69,-12.973 -13.87,-8.668 -25.43,-21.168 -34.69,-37.5 v -73.437 c 2.89,-9.68 7.19,-18.242 12.81,-25.621 5.71,-7.309 12.35,-13.59 19.85,-18.91 7.5,-5.309 15.46,-9.329 23.9,-12.032 8.52,-2.726 17.19,-4.058 25.94,-4.058 11.64,0 21.8,2.34 30.47,7.031 8.63,4.687 15.86,11.168 21.72,19.527 5.82,8.321 10.23,17.973 13.28,28.91 3.01,11.012 4.53,22.891 4.53,35.622 0,11.96 -1.48,23.64 -4.38,35 -2.81,11.332 -7.26,21.332 -13.28,30 -5.93,8.64 -13.51,15.511 -22.65,20.628 -9.18,5.192 -20.12,7.813 -32.81,7.813 z" /></g></g></svg>